<?xml version="1.0" encoding="utf-8"?>
<!-- Generator: Adobe Illustrator 23.0.1, SVG Export Plug-In . SVG Version: 6.00 Build 0)  -->
<svg version="1.1" id="Layer_1" xmlns="http://www.w3.org/2000/svg" xmlns:xlink="http://www.w3.org/1999/xlink" x="0px" y="0px"
	 viewBox="0 0 159.7 31.1" style="enable-background:new 0 0 159.7 31.1;" xml:space="preserve">
<style type="text/css">
	.st0{fill:#FF1D25;}
</style>
<g>
	<path d="M63,0.1v5c0,0,0,0.1-0.1,0.1h-9c0,0-0.1,0-0.1,0.1v25c0,0,0,0.1-0.1,0.1h-5.6c0,0-0.1,0-0.1-0.1v-25c0,0,0-0.1-0.1-0.1h-9
		c0,0-0.1,0-0.1-0.1v-5c0,0,0-0.1,0.1-0.1L63,0.1C63,0,63,0.1,63,0.1z"/>
	<path d="M67,12h0.5c0,0,0.1,0,0.1-0.1c0.8-2.3,2.7-3.2,5.4-3.2h2c0,0,0.1,0,0.1,0.1v4.6c0,0,0,0.1-0.1,0.1h-3.1
		c-2.8,0-4.8,1.5-4.8,4.5v12.3c0,0,0,0.1-0.1,0.1h-5.3c0,0-0.1,0-0.1-0.1V9c0,0,0-0.1,0.1-0.1h5.2c0,0,0.1,0,0.1,0.1V12
		C66.9,12,66.9,12,67,12z"/>
	<path d="M80.5,0c1.9,0,3.3,1.3,3.3,3.2s-1.5,3.2-3.3,3.2c-1.9,0-3.3-1.3-3.3-3.2S78.7,0,80.5,0z M83.2,30.5h-5.3c0,0-0.1,0-0.1-0.1
		V9c0,0,0-0.1,0.1-0.1h5.3c0,0,0.1,0,0.1,0.1L83.2,30.5C83.3,30.4,83.2,30.5,83.2,30.5z"/>
	<path d="M92.6,0.1v11.7c0,0,0,0.1,0.1,0.1h0.4h0.1c1.1-1.8,3-3.6,6.8-3.6c5.4,0,9.9,4.8,9.9,11.4s-4.5,11.4-9.9,11.4
		c-3.8,0-5.7-1.8-6.8-3.6c0,0,0,0-0.1,0h-0.5c0,0-0.1,0-0.1,0.1v2.9c0,0,0,0.1-0.1,0.1h-5.2c0,0-0.1,0-0.1-0.1V0.1
		c0,0,0-0.1,0.1-0.1L92.6,0.1C92.6,0,92.6,0.1,92.6,0.1z M93.6,19.7c0,4.1,2.5,6.5,5.9,6.5c3.3,0,5.9-2.3,5.9-6.5s-2.6-6.5-5.9-6.5
		C96.2,13.2,93.6,15.6,93.6,19.7z"/>
	<path d="M128.7,30.4v-3.3c0,0,0-0.1-0.1-0.1h-0.5c0,0-0.1,0-0.1,0.1c-0.9,2-2.9,3.8-6.8,3.8c-4.8,0-8.4-3.4-8.4-9V9
		c0,0,0-0.1,0.1-0.1h5.3c0,0,0.1,0,0.1,0.1v12.3c0,3,1.7,4.8,4.9,4.8c3.5,0,5.4-2.2,5.4-6V9c0,0,0-0.1,0.1-0.1h5.3
		c0,0,0.1,0,0.1,0.1v21.4c0,0,0,0.1-0.1,0.1L128.7,30.4C128.8,30.5,128.7,30.4,128.7,30.4z"/>
	<path d="M147.9,8.3c6.3,0,11.3,4.6,11.3,11.4s-5,11.4-11.3,11.4s-11.3-4.6-11.3-11.4S141.6,8.3,147.9,8.3z M147.9,26.2
		c3.5,0,5.8-2.6,5.8-6.5s-2.3-6.5-5.8-6.5s-5.8,2.6-5.8,6.5S144.5,26.2,147.9,26.2z"/>
	<path class="st0" d="M0.2,15.3h15L0.3,30.2C0.2,30.3,0,30.2,0,30V15.4C0,15.3,0.1,15.3,0.2,15.3z"/>
	<path class="st0" d="M30.4,0.2V30c0,0.2-0.2,0.2-0.3,0.1L0.3,0.3C0.2,0.2,0.3,0,0.4,0h29.8C30.3,0,30.4,0.1,30.4,0.2z"/>
</g>
</svg>
